#!OML:ASF F:\VICON\USERDATA\INSTALL\rory3\rory3.ASF
:FULLY-SPECIFIED
:DEGREES
1507
root -1.7205 14.16 0.784323 9.83243 -0.606214 1.17695
lowerback 17.4193 0.596584 -1.75412
upperback 0.932279 0.637996 2.12064
thorax -8.82643 0.424115 3.13757
lowerneck -27.16 -1.26724 -8.82683
upperneck 26.8739 1.28994 2.33447
head 13.5738 -0.0379453 2.64845
rclavicle -3.97569e-016 -4.77083e-015
rhumerus -35.874 -20.5921 -62.2241
rradius 41.2211
rwrist 12.5078
rhand -24.2964 4.56643
rfingers 7.12502
rthumb 2.19108 -25.4021
lclavicle -3.97569e-016 -4.77083e-015
lhumerus -35.7511 23.9617 65.7865
lradius 37.8016
lwrist 3.97016
lhand -18.4678 21.9722
lfingers 7.12502
lthumb 7.81885 51.8076
rfemur -58.3034 -26.619 22.6161
rtibia 97.6753
rfoot -16.1683 23.3607
rtoes 6.09347
lfemur -54.7296 18.178 -19.7647
ltibia 93.616
lfoot -27.6957 -16.3688
ltoes -19.7426
1508
root -1.72656 14.3072 0.793054 9.88805 -0.556642 1.18418
lowerback 17.2004 0.590364 -1.81461
upperback 0.938185 0.62133 2.13563
thorax -8.69755 0.41705 3.19117
lowerneck -27.265 -1.27315 -8.81331
upperneck 26.8798 1.2961 2.30825
head 13.5974 -0.0381726 2.63794
rclavicle -3.57812e-015 -5.56597e-015
rhumerus -35.8364 -20.6505 -62.3245
rradius 41.1558
rwrist 12.5046
rhand -24.7646 4.13124
rfingers 7.12502
rthumb 1.73894 -25.8414
lclavicle -3.57812e-015 -5.56597e-015
lhumerus -35.6953 23.7596 66.0569
lradius 37.7875
lwrist 3.79838
lhand -19.0435 21.2141
lfingers 7.12502
lthumb 7.26312 51.0694
rfemur -57.347 -26.2889 22.6186
rtibia 95.9921
rfoot -16.443 22.6716
rtoes 5.54366
lfemur -53.7706 17.8437 -19.805
ltibia 91.815
lfoot -27.5581 -15.8774
ltoes -19.8155
1509
root -1.73406 14.462 0.802059 9.91073 -0.499242 1.26791
lowerback 17.0378 0.598391 -1.94391
upperback 0.935568 0.6071 2.11788
thorax -8.60991 0.413768 3.24834
lowerneck -27.2707 -1.30913 -8.79475
upperneck 26.7417 1.24962 2.26198
head 13.5445 -0.0583783 2.60432
rclavicle 9.14409e-015 -3.97569e-015
rhumerus -36.0095 -20.5576 -62.4197
rradius 41.3468
rwrist 12.3519
rhand -24.6376 3.71779
rfingers 7.12502
rthumb 1.86157 -26.2538
lclavicle 9.14409e-015 -3.97569e-015
lhumerus -35.7249 23.6989 66.2104
lradius 37.8065
lwrist 3.79835
lhand -19.2375 19.5796
lfingers 7.12502
lthumb 7.07592 49.4413
rfemur -56.3163 -25.9455 22.5086
rtibia 94.237
rfoot -16.3332 22.4667
rtoes 6.57024
lfemur -52.726 17.4875 -19.8887
ltibia 89.9158
lfoot -27.4386 -15.51
ltoes -20.0755
1510
root -1.74157 14.6154 0.810864 9.87586 -0.445119 1.30715
lowerback 17.123 0.589003 -2.03272
upperback 0.828507 0.577695 2.1191
thorax -8.77339 0.40724 3.30928
lowerneck -27.3041 -1.30255 -8.86845
upperneck 26.8375 1.26776 2.35124
head 13.5886 -0.0484994 2.65831
rclavicle -8.54774e-015 -9.54166e-015
rhumerus -36.1255 -20.5712 -62.451
rradius 41.3574
rwrist 12.523
rhand -24.4247 3.41813
rfingers 7.12502
rthumb 2.06722 -26.5516
lclavicle -8.54774e-015 -9.54166e-015
lhumerus -35.9661 23.7557 66.1526
lradius 37.751
lwrist 3.74236
lhand -19.5888 17.8676
lfingers 7.12502
lthumb 6.73679 47.7405
rfemur -55.19 -25.6118 22.4295
rtibia 92.4416
rfoot -16.1381 22.2739
rtoes 7.84365
lfemur -51.5502 17.1201 -19.8975
ltibia 87.9778
lfoot -27.3501 -15.0306
ltoes -20.3791
1511
root -1.74479 14.767 0.823635 9.89922 -0.378963 1.28695
lowerback 16.9602 0.572211 -2.00769
upperback 0.815194 0.562704 2.12211
thorax -8.69564 0.398094 3.30085
lowerneck -27.3653 -1.32665 -8.98014
upperneck 26.7502 1.2398 2.4963
head 13.5632 -0.0479413 2.7282
rclavicle 0 -1.43125e-014
rhumerus -35.9817 -20.9292 -62.5021
rradius 41.1223
rwrist 12.8828
rhand -24.5198 3.58143
rfingers 7.12502
rthumb 1.97535 -26.3892
lclavicle 0 -1.43125e-014
lhumerus -35.9459 23.8941 66.1975
lradius 37.6806
lwrist 3.62632
lhand -19.649 18.2585
lfingers 7.12502
lthumb 6.6787 48.1332
rfemur -54.1161 -25.3113 22.4309
rtibia 90.6072
rfoot -16.2683 21.8164
rtoes 7.78229
lfemur -50.4493 16.7873 -19.9055
ltibia 86.0407
lfoot -27.1761 -14.4583
ltoes -20.5041
1512
root -1.74883 14.9136 0.838255 9.91917 -0.257219 1.26537
lowerback 16.6855 0.524292 -1.93411
upperback 0.845733 0.513446 2.09026
thorax -8.50399 0.367469 3.23368
lowerneck -27.4634 -1.28746 -8.85995
upperneck 26.6539 1.26693 2.45103
head 13.5409 -0.0269971 2.6939
rclavicle 4.37326e-015 -2.38542e-015
rhumerus -35.9493 -21.2087 -62.6218
rradius 40.9946
rwrist 12.8724
rhand -24.5749 4.27086
rfingers 7.12502
rthumb 1.92215 -25.7002
lclavicle 4.37326e-015 -2.38542e-015
lhumerus -35.8152 23.9731 66.2677
lradius 37.7653
lwrist 3.5789
lhand -19.5773 21.0112
lfingers 7.12502
lthumb 6.74786 50.8836
rfemur -52.9804 -25.0937 22.4414
rtibia 88.786
rfoot -16.3392 21.3682
rtoes 8.48688
lfemur -49.3828 16.4791 -19.9139
ltibia 84.1188
lfoot -26.9128 -14.0736
ltoes -20.0601
